<svg xmlns="http://www.w3.org/2000/svg" xmlns:xlink="http://www.w3.org/1999/xlink" viewBox="0 0 3710 3710"><defs><linearGradient id="linear-gradient" x1="3364.72" y1="3552.95" x2="1380.02" y2="1410.74" gradientUnits="userSpaceOnUse"><stop offset="0" stop-color="#dae3fe"/><stop offset="1" stop-color="#e9effd"/></linearGradient><linearGradient id="linear-gradient-2" x1="-370.07" y1="3035.94" x2="-504.07" y2="-930.55" gradientTransform="matrix(-1, 0, 0, 1, 1657.26, 0)" gradientUnits="userSpaceOnUse"><stop offset="0" stop-color="#09005d"/><stop offset="1" stop-color="#1a0f91"/></linearGradient><linearGradient id="linear-gradient-3" x1="-1506.09" y1="3591.87" x2="193.15" y2="1084.9" gradientTransform="matrix(-1, 0, 0, 1, 1657.26, 0)" gradientUnits="userSpaceOnUse"><stop offset="0" stop-color="#4f52ff"/><stop offset="1" stop-color="#4042e2"/></linearGradient><linearGradient id="linear-gradient-4" x1="1432.33" y1="1220.53" x2="2042.37" y2="1220.53" xlink:href="#linear-gradient"/><linearGradient id="linear-gradient-5" x1="-160.09" y1="269.43" x2="-830.25" y2="1151.01" xlink:href="#linear-gradient-2"/><linearGradient id="linear-gradient-6" x1="-86.58" y1="325.31" x2="-756.73" y2="1206.89" xlink:href="#linear-gradient-2"/><linearGradient id="linear-gradient-7" x1="-171.03" y1="379.24" x2="-633.76" y2="1228.9" xlink:href="#linear-gradient-3"/><linearGradient id="linear-gradient-8" x1="1338.69" y1="2351.32" x2="1219.6" y2="3299.08" gradientTransform="matrix(1, 0, 0, 1, 0, 0)" xlink:href="#linear-gradient-2"/><linearGradient id="linear-gradient-9" x1="1622.06" y1="2344.6" x2="808.27" y2="3316.06" gradientUnits="userSpaceOnUse"><stop offset="0" stop-color="#ff928e"/><stop offset="1" stop-color="#fe7062"/></linearGradient><linearGradient id="linear-gradient-10" x1="2914.22" y1="1838.21" x2="1749.48" y2="2748.64" xlink:href="#linear-gradient-9"/><linearGradient id="linear-gradient-11" x1="1176.63" y1="2330.96" x2="1057.54" y2="3278.71" gradientTransform="matrix(1, 0, 0, 1, 0, 0)" xlink:href="#linear-gradient-2"/><linearGradient id="linear-gradient-12" x1="15267.93" y1="3052.01" x2="14781.09" y2="3581.55" gradientTransform="matrix(-1, 0.01, 0.01, 1, 17670.15, -63.47)" xlink:href="#linear-gradient-2"/><linearGradient id="linear-gradient-13" x1="15109.91" y1="3091.34" x2="15153.15" y2="3091.34" gradientTransform="matrix(-1, 0.01, 0.01, 1, 17670.15, -63.47)" gradientUnits="userSpaceOnUse"><stop offset="0" stop-color="#febbba"/><stop offset="1" stop-color="#ff928e"/></linearGradient><linearGradient id="linear-gradient-14" x1="2861.97" y1="2311.65" x2="2507.56" y2="2999.47" gradientTransform="matrix(1, 0, 0, 1, 0, 0)" xlink:href="#linear-gradient-2"/><linearGradient id="linear-gradient-15" x1="15158.71" y1="2951.59" x2="14671.86" y2="3481.15" gradientTransform="matrix(-1, 0.01, 0.01, 1, 17670.15, -63.47)" xlink:href="#linear-gradient-2"/><linearGradient id="linear-gradient-16" x1="14954.05" y1="3089.11" x2="14991.39" y2="3089.11" xlink:href="#linear-gradient-13"/><linearGradient id="linear-gradient-17" x1="2915.26" y1="2339.11" x2="2560.85" y2="3026.92" gradientTransform="matrix(1, 0, 0, 1, 0, 0)" xlink:href="#linear-gradient-2"/><linearGradient id="linear-gradient-18" x1="2280.82" y1="-5711.29" x2="1782.37" y2="-4882.24" gradientTransform="translate(5126.54)" xlink:href="#linear-gradient-9"/><linearGradient id="linear-gradient-19" x1="2373.18" y1="2091.14" x2="2117.17" y2="1970.76" gradientTransform="matrix(1, 0, 0, 1, 0, 0)" xlink:href="#linear-gradient-13"/><linearGradient id="linear-gradient-20" x1="2168.18" y1="1699.28" x2="2163.55" y2="2120.88" gradientTransform="matrix(1, 0, 0, 1, 0, 0)" xlink:href="#linear-gradient-13"/><linearGradient id="linear-gradient-21" x1="2427.47" y1="1330.42" x2="2066.35" y2="2113.69" gradientTransform="matrix(1, 0, 0, 1, 0, 0)" xlink:href="#linear-gradient-13"/><linearGradient id="linear-gradient-22" x1="2406.1" y1="-5635.95" x2="1907.66" y2="-4806.9" gradientTransform="translate(5126.54)" xlink:href="#linear-gradient-9"/><linearGradient id="linear-gradient-23" x1="2875.96" y1="2233.57" x2="2592.81" y2="2503.16" gradientTransform="matrix(1, 0, 0, 1, 0, 0)" xlink:href="#linear-gradient-13"/><linearGradient id="linear-gradient-24" x1="2598.99" y1="2180.82" x2="2631.2" y2="1909.54" gradientTransform="matrix(1, 0, 0, 1, 0, 0)" xlink:href="#linear-gradient-13"/><linearGradient id="linear-gradient-25" x1="5678.24" y1="8701.77" x2="5636.93" y2="8565.53" gradientTransform="matrix(-0.75, -0.66, -0.66, 0.75, 12536.74, -818.16)" xlink:href="#linear-gradient-13"/><linearGradient id="linear-gradient-26" x1="5640.97" y1="8464.38" x2="5675.53" y2="8661.47" gradientTransform="matrix(-0.75, -0.66, -0.66, 0.75, 12536.74, -818.16)" xlink:href="#linear-gradient-2"/><linearGradient id="linear-gradient-27" x1="5636.01" y1="8701.13" x2="5598.84" y2="8578.55" gradientTransform="matrix(-0.75, -0.66, -0.66, 0.75, 12536.74, -818.16)" xlink:href="#linear-gradient-13"/><linearGradient id="linear-gradient-28" x1="14869.1" y1="2175.58" x2="15023.37" y2="2818.4" gradientTransform="matrix(-1, 0, 0, 1, 17401.86, 0)" xlink:href="#linear-gradient-2"/><linearGradient id="linear-gradient-29" x1="14763.38" y1="2345.64" x2="14850.79" y2="2345.64" gradientTransform="matrix(-1, 0, 0, 1, 17401.86, 0)" xlink:href="#linear-gradient-13"/></defs><g id="Background"><rect width="3710" height="3710" fill="#fff"/></g><g id="Illustration"><path d="M3088.14,2332.18c-272.71,637.43-992.58,911.23-1556.61,864.54-154-12.74-463.86-38.39-705.8-267.18C361.1,2490.15,432.65,1571.72,877.44,1031,934.72,961.36,1331.19,494.82,1949,501.06c452.35,4.57,769.84,260.1,808.45,291.93,48.77,40.21,156.34,135.78,253.28,287.38C3238.53,1436.58,3258.56,1933.85,3088.14,2332.18Z" fill="url(#linear-gradient)"/><path d="M782.2,767.55c4.64-15.51,27-14.49,30.18,1.4,30.32,153.58,122.43,553.82,295.2,776,281.3,361.71,443,925.81,223.44,1194.09C1331,2739,276.14,2457.72,782.2,767.55Z" fill="#91b3fa"/><path d="M795,984.29c0,4.94.38,9,.6,13.43l1,13,2.17,25.88c1.57,17.25,3.39,34.46,5.23,51.68q5.67,51.62,12.52,103.1c9.19,68.63,20.23,137,32.29,205.2s25.86,136.09,41.17,203.65,31.7,134.9,50.24,201.68c36.81,133.6,80.92,265.33,134.17,393.42,27.29,63.74,56.26,126.81,88.82,188.06,33,61,68.61,120.63,108.4,177.39a2.73,2.73,0,0,0,4.53-3.05l0,0a2011.2,2011.2,0,0,1-102.88-179.51c-31.4-61.43-59.19-124.63-85.3-188.46s-49.59-128.76-71.62-194.15-41.29-131.7-60.2-198.07c-37.26-133-67.4-267.85-93.82-403.43Q842.62,1292.31,827,1189.83q-7.94-51.21-14.84-102.58l-6.43-51.41-3-25.73-1.33-12.87c-.37-4.22-.84-8.75-1-12.46l0-.61a2.71,2.71,0,0,0-5.41.12Z" fill="#fff" opacity="0.43"/><path d="M1329.78,467.3c8.49-12.95,28.76-5.9,27.3,9.52-14.1,149.12-38.81,541.29,59,792.14,159.3,408.45,138.68,992.09-135.88,1178.2C1280.22,2447.16,404.62,1879.22,1329.78,467.3Z" fill="#bdd0fb"/><path d="M1282.31,669.53c-1.36,4.54-2.12,8.38-3.11,12.48l-2.68,12.16-5.08,24.33c-3.27,16.24-6.29,32.52-9.31,48.81q-8.88,48.88-16.66,98c-10.31,65.45-18.84,131.16-26.39,197s-13.44,131.87-17.83,198-7.73,132.36-9,198.66c-2.69,132.57,1.84,265.41,15.73,397.4,7.65,65.9,17,131.65,30.19,196.71,13.63,64.93,30,129.33,51.06,192.23a2.66,2.66,0,0,0,5.08-1.58v0A1924.73,1924.73,0,0,1,1249,2051c-12-64.9-20.27-130.44-26.79-196.09s-10.34-131.61-12.7-197.57-1.93-132-1.17-198.07c2.09-132.08,11.26-264,24-395.55q9.77-98.64,23.36-196.89,6.68-49.12,14.35-98.11l8.11-48.91,4.3-24.4,2.29-12.16c.81-4,1.62-8.26,2.47-11.7l.14-.58a2.63,2.63,0,0,0-5.08-1.39Z" fill="#fff" opacity="0.43"/><path d="M2970.08,946.25a171.32,171.32,0,0,0-171.33-171.33h-1457A151,151,0,0,0,1191,918.19L1083.49,3030.52a111.3,111.3,0,0,0,109.14,116.95l1669.88,30.35a105.64,105.64,0,0,0,107.57-105.63Z" fill="url(#linear-gradient-2)"/><path d="M2618.45,3141.91h.05l186.85-2.41c62.48-.81,113.31-52.3,113.31-114.78V2742.61a4,4,0,1,0-8,0v282.11c0,58.13-47.29,106-105.43,106.8l-186.85,2.42a4,4,0,0,0,0,8Z" fill="#91b3fa"/><path d="M2914.67,2659.21a4,4,0,0,0,4-4v-45.68a4,4,0,0,0-8,0v45.68A4,4,0,0,0,2914.67,2659.21Z" fill="#91b3fa"/><path d="M2850.72,807.43a49.77,49.77,0,0,0-56.45-49.63c-199,27-883.14,110.43-1448.81,67a46,46,0,0,0-49.56,43.4L1183.13,2990a53,53,0,0,0,49.75,55.69c237.92,14.08,1217.71,68.51,1567.19,31.9a42,42,0,0,0,37.54-41.52Z" fill="url(#linear-gradient-3)"/><path d="M2827.28,860.6A47.89,47.89,0,0,0,2773,812.84c-191.47,26-849.89,106.27-1394.26,64.48A44.28,44.28,0,0,0,1331,919.09L1222.49,2960.94a51,51,0,0,0,47.88,53.6c229,13.55,1171.85,65.93,1508.17,30.7a40.38,40.38,0,0,0,36.13-40Z" fill="#91b3fa"/><path d="M2042.34,1001.58,2020,1439.33c-.74,14.56-13.64,26.14-29.62,26.55-88.91,2.29-366,8.45-522.4,1-17.7-.84-31.7-13.89-32.29-30-3-82.1-9.51-321,11-420.93,3.31-16.13,18.52-27.95,36.52-28.53l525.54-16.76C2027.74,970,2043.22,984.31,2042.34,1001.58Z" fill="url(#linear-gradient-4)"/><g opacity="0.6"><path d="M2111.69,1056.13a14.4,14.4,0,0,1-14.62-14.68,15.79,15.79,0,0,1,15.47-15l529.52-9.43c8.28-.15,12.8,6.12,10.05,13.92l-3.86,11c-2.75,7.8-11.77,14.19-20.05,14.19Z" fill="#fff"/></g><g opacity="0.6"><path d="M2102.89,1402.87a14.4,14.4,0,0,1-14.62-14.68,15.79,15.79,0,0,1,15.47-15l529.52-9.43c8.28-.15,12.8,6.12,10,13.92l-3.86,11c-2.75,7.8-11.77,14.19-20,14.19Z" fill="#fff"/></g><g opacity="0.6"><path d="M2642.06,1098.66c8.28-.14,12.8,6.12,10.05,13.93l-3.86,11c-2.75,7.81-11.77,14.2-20.05,14.2H2111.69a14.4,14.4,0,0,1-14.62-14.69c.23-8.07,7.2-14.8,15.47-15Z" fill="#fff"/></g><g opacity="0.6"><path d="M2642.06,1181.46c8.28-.15,12.8,6.12,10.05,13.93l-3.86,10.95c-2.75,7.81-11.77,14.19-20.05,14.19H2111.69a14.39,14.39,0,0,1-14.62-14.68,15.79,15.79,0,0,1,15.47-15Z" fill="#fff"/></g><g opacity="0.6"><path d="M2636.78,1268.9c8.28-.14,12.8,6.12,10,13.93l-3.86,11c-2.75,7.81-11.77,14.2-20,14.2H2106.41a14.4,14.4,0,0,1-14.62-14.69c.23-8.07,7.2-14.8,15.47-15Z" fill="#fff"/></g><g opacity="0.6"><path d="M1398.1,1598.69A13.79,13.79,0,0,1,1384,1584c.53-8.07,7.74-14.74,16-14.8l1235.09-9.74c8.27-.06,10.83,5.18,5.67,11.66l-12.58,15.79c-5.15,6.48-16.14,11.78-24.42,11.78Z" fill="#fff"/></g><g opacity="0.6"><path d="M2635.13,1746.68c8.27-.07,10.83,5.18,5.67,11.65l-12.58,15.8c-5.15,6.47-16.14,11.77-24.42,11.77H1398.1a13.79,13.79,0,0,1-14.08-14.68c.53-8.08,7.74-14.74,16-14.81Z" fill="#fff"/></g><g opacity="0.6"><path d="M2643.36,1938.55c8.28-.06,10.83,5.18,5.68,11.66L2636.46,1966c-5.15,6.48-16.15,11.78-24.42,11.78H1406.34a13.78,13.78,0,0,1-14.08-14.69c.53-8.08,7.74-14.74,16-14.8Z" fill="#fff"/></g><g opacity="0.6"><path d="M2677.06,2163.86c-3.92,11.38-17.28,19.24-32.44,19.06l-1235.56-14c-14-.16-25.12-9.18-24.76-20.05.35-10.57,11.45-19,25-19L2645,2131.33C2666.81,2131.35,2682.7,2147.47,2677.06,2163.86Z" fill="#fff"/></g><g opacity="0.6"><path d="M2676,2386.54c-3.92,11.38-17.28,19.23-32.44,19.06l-1235.56-14c-14-.16-25.12-9.18-24.76-20,.35-10.57,11.45-19,25-19L2644,2354C2665.77,2354,2681.66,2370.15,2676,2386.54Z" fill="#fff"/></g><g opacity="0.6"><path d="M2675,2609.21c-3.92,11.39-17.28,19.24-32.44,19.07l-1235.56-14c-14-.15-25.12-9.17-24.76-20,.35-10.56,11.45-19,25-19l1235.66,1.39C2664.73,2576.71,2680.62,2592.83,2675,2609.21Z" fill="#fff"/></g><g opacity="0.6"><path d="M2673.94,2831.89h0c-3.92,11.39-17.28,19.24-32.44,19.07l-1235.56-14c-14-.16-25.12-9.18-24.76-20,.35-10.57,11.45-19,25-19l1235.66,1.39C2663.69,2799.39,2679.58,2815.51,2673.94,2831.89Z" fill="#fff"/></g><path d="M1976.94,694.39l165.31-14.67,13.89-151.64a64.25,64.25,0,0,0-45.63-67.55c-32.22-9.5-78-10.23-130.6,26.38C1876.69,558.71,1976.94,694.39,1976.94,694.39ZM2011.38,568a41.22,41.22,0,1,1,41.22,41.22A41.23,41.23,0,0,1,2011.38,568Z" fill="url(#linear-gradient-5)"/><path d="M2125.37,615.91a4,4,0,0,1-3.61-4.33l2.22-24.15a3.94,3.94,0,0,1,4.33-3.61,4,4,0,0,1,3.61,4.33l-2.21,24.15a4,4,0,0,1-4,3.63A2.3,2.3,0,0,1,2125.37,615.91Zm4.34-47.32a4,4,0,0,1-3.61-4.33l1.68-18.34a53.33,53.33,0,0,0-37.8-56,115.79,115.79,0,0,0-56.56-2.32,4,4,0,1,1-1.6-7.81,123.44,123.44,0,0,1,60.42,2.48,61.31,61.31,0,0,1,43.48,64.35L2134,565a4,4,0,0,1-4,3.63Z" fill="#91b3fa"/><path d="M2367.87,777.71V701.47A46.52,46.52,0,0,0,2319.76,655l-525.62,18a45.24,45.24,0,0,0-43.61,42.51l-4.39,73.25Z" fill="url(#linear-gradient-6)"/><path d="M2171.88,683.7h22.61a4,4,0,1,0,0-8h-22.61a4,4,0,1,0,0,8Z" fill="#91b3fa"/><path d="M2339.42,753.77a4,4,0,0,0,4-4V718.94a43.25,43.25,0,0,0-43.21-43.21h-83.11a4,4,0,1,0,0,8h83.11a35.27,35.27,0,0,1,35.23,35.24v30.84A4,4,0,0,0,2339.42,753.77Z" fill="#91b3fa"/><path d="M2582,797a49.53,49.53,0,0,0-49.47-47.15l-919.14,0a67.93,67.93,0,0,0-66.94,56.35l-.78,4.49a58.35,58.35,0,0,0,57.49,68.3h943a37.94,37.94,0,0,0,37.89-39.76Z" fill="url(#linear-gradient-7)"/><path d="M1607.63,2335.6c-.11-3-13.13-300.65-143.19-407.83-38.54-31.76-84.07-43.83-135.32-35.9-107.86,16.69-182.46,96-221.72,235.84-29.5,105-26.75,206.54-26.72,207.55l-9.92.31c0-1-2.84-103.85,27-210.33,17.61-62.78,43-114.6,75.36-154,40.74-49.59,92.71-79.58,154.47-89.14,54.16-8.38,102.33,4.42,143.15,38.06,56.16,46.29,97.94,130.3,124.18,249.7,19.45,88.54,22.58,164.64,22.61,165.4Z" fill="url(#linear-gradient-8)"/><path d="M663.47,3162.57l131.83-869A17.2,17.2,0,0,1,812,2278.93l761.78-12.59,164.78,981.06H728.32C685.46,3247.4,657.21,3205,663.47,3162.57Z" fill="url(#linear-gradient-9)"/><path d="M1720.67,2278.84l-146.87-12.5,164.78,981.06,162.67-4.2a25.73,25.73,0,0,0,24.52-31l-193.72-924A13,13,0,0,0,1720.67,2278.84Z" fill="url(#linear-gradient-10)"/><path d="M1443.41,2332.45c-.11-3-13.13-300.66-143.19-407.84-38.54-31.75-84.07-43.83-135.32-35.9-107.86,16.69-182.46,96-221.72,235.84-29.5,105-26.75,206.54-26.72,207.55l-9.92.31c0-1-2.84-103.84,27-210.32,17.61-62.78,43-114.61,75.36-154,40.74-49.6,92.71-79.59,154.47-89.15,54.16-8.38,102.33,4.42,143.15,38.06,56.16,46.29,97.94,130.3,124.18,249.7,19.45,88.54,22.58,164.64,22.61,165.4Z" fill="url(#linear-gradient-11)"/><path d="M2585.48,3171.56s5.31,28.5,8.06,56.73a19.47,19.47,0,0,1-18.43,21.27c-37.61,1.92-118.06,5.74-147,4.72a6.33,6.33,0,0,1-5.65-8.62,14.16,14.16,0,0,1,7.18-7.71L2562,3175.58Z" fill="url(#linear-gradient-12)"/><path d="M2589.45,3154.75l-3.72,34.18s-23.19,11.06-39.21-1l9.28-38.14Z" fill="url(#linear-gradient-13)"/><path d="M2580.28,2512.9c1.84,8.9,13.64,444.84-31.1,640.67a6.63,6.63,0,0,0,4,7.68,115.47,115.47,0,0,0,38,7.35,11.42,11.42,0,0,0,11.25-8.3c12.89-45.46,74.57-273.21,80.82-490.26,7-242.54-.08-8.26-.08-8.26L2676.28,2512Z" fill="url(#linear-gradient-14)"/><path d="M2738.56,3185s8.16,14.34,16.3,52.55a11.89,11.89,0,0,1-10.32,14.33c-12.41,1.34-31.52,3.09-46.85,3.13a11.85,11.85,0,0,1-11.85-13.1c1.57-14,6.64-37,22.8-55Z" fill="url(#linear-gradient-15)"/><path d="M2745.19,3141l-9,51.72s-9.29,7.05-27.85,2.18l4-55.59Z" fill="url(#linear-gradient-16)"/><path d="M2764.88,2524.52c40.31,229.68-2.85,568.65-17.86,635.06a10.33,10.33,0,0,1-8.27,7.92c-7,1.23-18.46,2.28-29.82-.9a9.48,9.48,0,0,1-6.89-8.66c-2.61-53.54-2-382.43-38.73-512.06a29.55,29.55,0,0,0-11.54-16.18l-69.4-48.34-6-79.17Z" fill="url(#linear-gradient-17)"/><path d="M2517.83,2091c114.22-3,240.56,27.7,240.56,27.7,36,198.35,10,427.78,10,427.78-88.22,24-188.33-12.38-188.33-12.38-15.49-82.9-86.3-316-86.3-316-55.88-6.4-102-22.06-140.08-43,28.56-33.75,41.77-76.48,47.45-101.72C2441.67,2085.56,2482.61,2091.87,2517.83,2091Z" fill="url(#linear-gradient-18)"/><path d="M2178.81,1925.92c11.09-13.66,25.36-7.39,25.36-7.39,17.48,70.85,106.17,127.59,197,154.86-5.68,25.24-18.89,68-47.45,101.72C2192.82,2086.65,2179.58,1931.32,2178.81,1925.92Z" fill="url(#linear-gradient-19)"/><path d="M2181.57,1929.34c-1.14,3.74,12.51,9.3,20.37-6,.21-7.31,4.36-38.7-.07-44.62-23.59-31.53-69.11-70.89-69.11-70.89-7.56,7.6-1.2,14.94-1.2,14.94l22.12,22.6c-4.51,8.32-10,15.37-12.55,25.4a30.72,30.72,0,0,0,3.27,22.56c3.91,6.89,9.25,15.84,14.27,22.84C2168.18,1929.37,2181.57,1929.34,2181.57,1929.34Z" fill="url(#linear-gradient-20)"/><path d="M2163.39,1860l20.12,16.73,6.43,16.79-17.6,19.91s-6.31-33.37-10.82-40.56S2159.27,1862.19,2163.39,1860Z" fill="url(#linear-gradient-21)"/><path d="M2715.63,2229.68l42.76-111s107.39,71.48,125.82,163.23c-20.15,1.67-56.79,7.27-92.52,25.74C2783.38,2264.3,2715.63,2229.68,2715.63,2229.68Z" fill="url(#linear-gradient-22)"/><path d="M2623.38,2334.65s120.44,66.56,160.31,8.37c8.28-12.09,10.17-24,8-35.39,35.73-18.47,72.37-24.07,92.52-25.74,5.55,27.66,3,57.15-13,87.1-69.57,130.19-263.44-4.65-263.44-4.65Z" fill="url(#linear-gradient-23)"/><path d="M2632.66,1997.11,2670,2101.88a3.8,3.8,0,0,1-1.69,4.58c-9.85,5.57-45.4,21.74-88.67-5.12a17.83,17.83,0,0,1-8.34-12.66l-12.64-90.86Z" fill="url(#linear-gradient-24)"/><path d="M2552.64,1900.53s-39.19,75.51-33.79,105.81,54.85,27.65,97.81,2.59l29.41-81.41Z" fill="url(#linear-gradient-25)"/><path d="M2614.37,1969.11a3.09,3.09,0,0,1-1.39-4.52c3.15-4.91,9.05-14.94,10.88-23.68,0,0,7.13-4.66-18.37-10.51s-63.52-14.93-71.69-36.51c-8-21,11.94-74.32,44.93-32.33a3.1,3.1,0,0,0,4.91,0c5.27-7,19.18-21.57,38.76-13,18.32,8,20.51,21.37,20.32,28.11a3.08,3.08,0,0,0,3.68,3.12c9.21-1.85,31.33-3.57,41.88,19,8.69,18.62,3.26,29.26-1.73,34.49a3.08,3.08,0,0,0,1.37,5.11c6.08,1.8,14,6.87,13.31,21.08-.9,19.65-22.87,18.13-29.13,17.29a3.14,3.14,0,0,0-2.74,1c-5.3,6-29.21,31.4-55.32,34.69a3.13,3.13,0,0,1-3.31-4.1l11-33a3.11,3.11,0,0,0-1.71-3.84Z" fill="url(#linear-gradient-26)"/><path d="M2609.87,1973.82s28.23-19.77,30.46-3.37-25.36,24-39.12,18Z" fill="url(#linear-gradient-27)"/><path d="M2648,2439.84l-65.61-229.12a6.68,6.68,0,0,0-5.65-4.81c-11.89-1.39-46.33-5.28-86.1-8.64-47.91-4.06-103.54-7.34-136.78-4.55a6.71,6.71,0,0,0-5.48,9.65c18.9,38.25,96.66,193.82,135.6,244.78a6.73,6.73,0,0,0,5.41,2.66l152.23-1.42A6.71,6.71,0,0,0,2648,2439.84Z" fill="url(#linear-gradient-28)"/><path d="M2632.15,2384.49s9.14-37.58,5.45-50.92-10.83-30.47-34.64-26.66-51.89,13.84-51.89,13.84,1.42,17.36,19.51,11.76l-11.22,8.68s1.6,13.91,16.89,6.48l-10.44,11.51s6.57,11.42,17.81,4.1S2600.26,2389,2632.15,2384.49Z" fill="url(#linear-gradient-29)"/><path d="M2495,2265.66a19.26,19.26,0,1,1-19.26-19.26A19.26,19.26,0,0,1,2495,2265.66Z" fill="#91b3fa"/><path d="M2575,2278.36,2561.61,2233a15.55,15.55,0,0,0-11.68-10.9c-41.87-8.74-156.46-10.59-157.61-10.61l.07-5.12c4.73.08,116.24,1.89,158.59,10.72a20.66,20.66,0,0,1,15.54,14.47l13.36,45.31Z" fill="#91b3fa"/></g></svg>